<?xml version="1.0" encoding="utf-8"?>
<?xml-stylesheet type="text/xsl" href="rss1.xsl"?>
<rss version="2.0" xmlns:atom="http://www.w3.org/2005/Atom" xmlns:content="http://purl.org/rss/1.0/modules/content/" xmlns:dc="http://purl.org/dc/elements/1.1/" xmlns:media="http://search.yahoo.com/mrss/">
<channel>
 <title>Getty</title>
 <link>http://www.gettyimg.com/</link>
 <atom:link href="http://www.gettyimg.com/" rel="self" type="application/rss+xml" />

 
                <item>
                <title><![CDATA[【Singles (lossy)】MP3 - Taylor Swift - The Smallest Man Who Ever Lived (Live from TS The Eras Tour 2024) IEM AUDIO]]></title>
                <link><![CDATA[https://sharemania.us/threads/taylor-swift-the-smallest-man-who-ever-lived-live-from-ts-the-eras-tour-2024-iem-audio.247208/]]></link>
                <description><![CDATA[<article>
<blockquote class="messageText SelectQuoteContainer ugc baseHtml">
<img src="https://scontent.fhan3-5.fna.fbcdn.net/v/t1.15752-9/448422081_3623735361224726_5996118736273878307_n.png?_nc_cat=104&amp;ccb=1-7&amp;_nc_sid=5f2048&amp;_nc_ohc=MvugDDZuSn4Q7kNvgH3uULT&amp;_nc_ht=scontent.fhan3-5.fna&amp;oh=03_Q7cD1QGzddIZriddZeMQrNBGPY-ool2lBaL5ULKfMj7zbI7GdQ&amp;oe=6697A639" class="bbCodeImage LbImage" alt="[​IMG]" data-url="https://scontent.fhan3-5.fna.fbcdn.net/v/t1.15752-9/448422081_3623735361224726_5996118736273878307_n.png?_nc_cat=104&amp;ccb=1-7&amp;_nc_sid=5f2048&amp;_nc_ohc=MvugDDZuSn4Q7kNvgH3uULT&amp;_nc_ht=scontent.fhan3-5.fna&amp;oh=03_Q7cD1QGzddIZriddZeMQrNBGPY-ool2lBaL5ULKfMj7zbI7GdQ&amp;oe=6697A639" style=""> <br>
<br>
<br>
<div class="ToggleTriggerAnchor bbCodeSpoilerContainer">
<button type="button" class="button bbCodeSpoilerButton ToggleTrigger Tooltip JsOnly" data-target="> .SpoilerTarget"><span>Spoiler: <span class="SpoilerTitle">infor</span></span></button>
<div class="SpoilerTarget bbCodeSpoilerText">General<br>
Complete name : F:\The Smallest Man Who Ever Lived - Live From TS _ The Eras Tour.mp3<br>
Format : MPEG Audio<br>
File size : 4.50 MiB<br>
Duration : 2 min 50 s<br>
Overall bit rate mode : Constant<br>
Overall bit rate : 128 kb/s<br>
Album : The Smallest Man Who Ever Lived - Live From TS | The Eras Tour<br>
Album/Performer : Taylor Swift<br>
Track name : The Smallest Man Who Ever Lived - Live From TS | The Eras Tour<br>
Performer : Taylor Swift<br>
Genre : Pop<br>
Recorded date : 2024<br>
Writing library : LAME3.100<br>
Cover : Yes<br>
major_brand : isom<br>
minor_version : 512<br>
compatible_brands : isomiso2avc1mp41<br>
Hw : 1<br>
LvMetaInfo : {"data":{"ad_type":"","adsTemplateId":"","appVersion":"12.0.0","businessComponentId":"","businessTemplateId":"","capabilityName":"","ccTtVid":"72324345","commercial_params":{"commercial_audio_music_cnt":0,"commercial_sticker_cnt":0,"commercial_text_font_cnt":0,"commercial_text_template_cnt":0,"commercial_tone_cnt":0},"draftInfo":{"adjust":0,"aiInPaintingCnt":0,"aiMatting":0,"aiOutPaintingCnt":0,"aiStickerCnt":0,"aiTranslateCnt":0,"audioToText":0,"chroma":0,"colorCorrectCnt":0,"coverTemplateId":"","curveSpeed":0,"digitalHumanCnt":0,"faceEffectId":"","filterId":"","gameplayAlgorithm":"","graphs":0,"keyframe":0,"mask":0,"mixMode":0,"motion_blur_cnt":0,"movie3dTextTemplateId":"","normalSpeed":0,"objectLocked":0,"pip":0,"reduceNoiseCnt":0,"removeFlickersCnt":0,"reverse":0,"slowMotion":0,"smartColorCnt":0,"smartMotion":0,"smartReframeCnt":0,"soundId":"","stickerId":"","textAnimationId":"","textEffectId":"","textShapeId":"","textTemplateId":"","textToAudio":0,"transitionId":"","videoAnimationId":"","videoEffectId":"","videoMaterialId":"","videoTracking":0,"vocalSeparation":0},"editSource":"","editType":"edit","enterFrom":"draft","exportType":"export","extendTemplateId":"","extendTemplateType":0,"filterId":"","greenscreenLayoutType":"","infoStickerId":"","is_from_knowledge_share":0,"is_keyframe":0,"is_mid_template":0,"is_use_ai_translation":0,"is_use_relight":0,"is_use_smart_motion":0,"is_use_vision_to_video":0,"is_use_voice_clone":0,"is_use_voice_optimization":false,"is_velocity_edited":0,"launchMode":"launch","lock_cnt_list":"","movie3dTextTemplateId":"","musicId":"","music_volume":0,"original_volume":100,"os":"android","product":"vicut","region":"PH","resourceTypeApplied":"","slowMotion":"none","stickerId":"","templateId":"","textSpecialEffect":"","theme_params":"[]","transferMethod":"","transitions":"","useSpecialEffectKeyFrame":0,"used_ugc_timbre_info":"{\"text_to_speech\":[],\"voice_conversion\":[]}","videoAnimation":"","videoEffectId":"","videoId":"db20fb04-0344-497a-9b97-75fc9132f66f"},"source_type":"vicut"}<br>
aigc_info : {"aigc_label_type":0,"source_info":""}<br>
bitrate : 15000000<br>
maxrate : 30000000<br>
te_is_reencode : 1<br>
Audio<br>
Format : MPEG Audio<br>
Format version : Version 1<br>
Format profile : Layer 3<br>
Mode : Joint stereo<br>
Mode extension : MS Stereo<br>
Duration : 2 min 50 s<br>
Bit rate mode : Constant<br>
Bit rate : 128 kb/s<br>
Channel(s) : 2 channels<br>
Sampling rate : 44.1 kHz<br>
Compression mode : Lossy<br>
Stream size : 2.60 MiB (58%)<br>
Writing library : LAME3.100</div>
</div><br>
<br>
<div class="bbCodeBlock bbCodeVfcHH HiddenContent">
<div class="attribution type">Hidden Content:</div>
<blockquote>You must either reply or click 'Like' to see the hidden information contained here.</blockquote>
</div>
<div class="messageTextEndMarker">&nbsp;</div>
</blockquote>
</article>]]></description>
                <author><![CDATA[dangbui06100]]></author>
                </item>

                
                <item>
                <title><![CDATA[【Albums (lossy)】MP3 - Taylor Swift - The Red Tour live album (IEM AUDIO)]]></title>
                <link><![CDATA[https://sharemania.us/threads/taylor-swift-the-red-tour-live-album-iem-audio.247207/]]></link>
                <description><![CDATA[<article>
<blockquote class="messageText SelectQuoteContainer ugc baseHtml">
<img src="https://scontent.fhan3-1.fna.fbcdn.net/v/t1.15752-9/448370889_479586581103394_7594391633634835684_n.png?_nc_cat=102&amp;ccb=1-7&amp;_nc_sid=5f2048&amp;_nc_ohc=JXS0Q0pFne8Q7kNvgGg4LCp&amp;_nc_ht=scontent.fhan3-1.fna&amp;oh=03_Q7cD1QEN3mVTRq1gW5hAtxgDpKGo7VzuLVBCaua_8u-MSxNLmw&amp;oe=669798E6" class="bbCodeImage LbImage" alt="[​IMG]" data-url="https://scontent.fhan3-1.fna.fbcdn.net/v/t1.15752-9/448370889_479586581103394_7594391633634835684_n.png?_nc_cat=102&amp;ccb=1-7&amp;_nc_sid=5f2048&amp;_nc_ohc=JXS0Q0pFne8Q7kNvgGg4LCp&amp;_nc_ht=scontent.fhan3-1.fna&amp;oh=03_Q7cD1QEN3mVTRq1gW5hAtxgDpKGo7VzuLVBCaua_8u-MSxNLmw&amp;oe=669798E6" style=""> <br>
<br>
TRACKLIST<br>
1. State Of Grace<br>
2. Holy Ground<br>
3. Red<br>
4. You Belong With Me<br>
5. The Lucky One<br>
6. Mean<br>
7. Stay Stay Stay<br>
8. 22<br>
9. I Almost Do<br>
10. Erevything Has Changed<br>
11. Begin Again<br>
12. Sparks Fly<br>
13. I Knew You Were Trouble<br>
14. All Too Well<br>
15. Love Story<br>
16. Treacherous<br>
17. We Are Never Ever Getting Back Together<br>
<br>
<div class="ToggleTriggerAnchor bbCodeSpoilerContainer">
<button type="button" class="button bbCodeSpoilerButton ToggleTrigger Tooltip JsOnly" data-target="> .SpoilerTarget"><span>Spoiler: <span class="SpoilerTitle">INFOR</span></span></button>
<div class="SpoilerTarget bbCodeSpoilerText">General<br>
Complete name : F:\The Red Tour\3. Red - Live From The Red Tour.mp3<br>
Format : MPEG Audio<br>
File size : 16.2 MiB<br>
Duration : 6 min 8 s<br>
Overall bit rate mode : Constant<br>
Overall bit rate : 320 kb/s<br>
Album : The Red Tour<br>
Album/Performer : Taylor Swift<br>
Track name : Red - Live From The Red Tour<br>
Track name/Position : 3<br>
Performer : Taylor Swift<br>
Genre : Pop<br>
Writing library : Lavf58.76.100<br>
Cover : Yes<br>
M3P-META Referrer URL : <span data-s9e-mediaembed="youtube" style="display:inline-block;width:100%;max-width:640px"><span style="display:block;overflow:hidden;position:relative;padding-bottom:56.25%"><iframe allowfullscreen="" loading="lazy" scrolling="no" style="background:url(https://i.ytimg.com/vi/77WSu7NNnlk/hqdefault.jpg) 50% 50% / cover;border:0;height:100%;left:0;position:absolute;width:100%" src="https://www.youtube.com/embed/77WSu7NNnlk"></iframe></span></span><br>
MP3-META Front Cover URL : <a href="https://i1.ytimg.com/vi/77WSu7NNnlk/sddefault.jpg" target="_blank" class="externalLink" rel="nofollow">https://i1.ytimg.com/vi/77WSu7NNnlk/sddefault.jpg</a><br>
Audio<br>
Format : MPEG Audio<br>
Format version : Version 1<br>
Format profile : Layer 3<br>
Duration : 6 min 8 s<br>
Bit rate mode : Constant<br>
Bit rate : 320 kb/s<br>
Channel(s) : 2 channels<br>
Sampling rate : 48.0 kHz<br>
Compression mode : Lossy<br>
Stream size : 14.1 MiB (87%)</div>
</div><br>
<div class="bbCodeBlock bbCodeVfcHH HiddenContent">
<div class="attribution type">Hidden Content:</div>
<blockquote>You must either reply or click 'Like' to see the hidden information contained here.</blockquote>
</div>
<div class="messageTextEndMarker">&nbsp;</div>
</blockquote>
</article>]]></description>
                <author><![CDATA[dangbui06100]]></author>
                </item>

                
                <item>
                <title><![CDATA[【Requests】[REQ AUD] - Alan Walker - Who I Am Restrung Ver.]]></title>
                <link><![CDATA[https://sharemania.us/threads/alan-walker-who-i-am-restrung-ver.247206/]]></link>
                <description><![CDATA[<article>
<blockquote class="messageText SelectQuoteContainer ugc baseHtml">
can you share <b>Alan Walker - Who I Am Restrung Version</b>??? FLAC please...
<div class="messageTextEndMarker">&nbsp;</div>
</blockquote>
</article>]]></description>
                <author><![CDATA[danienciel]]></author>
                </item>

                
                <item>
                <title><![CDATA[【Unreleased/Unofficial (lossy)】MP3 - Taylor Swift - The Smallest Man Who Ever Lived (Live from TS The Eras Tour 2024) IEM]]></title>
                <link><![CDATA[https://sharemania.us/threads/taylor-swift-the-smallest-man-who-ever-lived-live-from-ts-the-eras-tour-2024-iem.247205/]]></link>
                <description><![CDATA[<article>
<blockquote class="messageText SelectQuoteContainer ugc baseHtml">
<a href="https://sharemania.us/threads/taylor-swift-the-smallest-man-who-ever-lived-live-from-ts-the-eras-tour-2024-iem-audio.247208/" class="internalLink">https://sharemania.us/threads/taylo...-from-ts-the-eras-tour-2024-iem-audio.247208/</a>
<div class="messageTextEndMarker">&nbsp;</div>
</blockquote>
</article>]]></description>
                <author><![CDATA[dangbui06100]]></author>
                </item>

                </channel></rss>